<svg id="visual" viewBox="0 0 900 600" width="900" height="600" xmlns="http://www.w3.org/2000/svg" xmlns:xlink="http://www.w3.org/1999/xlink" version="1.1"><rect width="900" height="600" fill="#a5d8fc"></rect><g><g transform="translate(881 313)"><path d="M0 -114.9L81.3 -81.3L114.9 0L81.3 81.3L0 114.9L-81.3 81.3L-114.9 0L-81.3 -81.3Z" fill="#C62368"></path></g><g transform="translate(614 274)"><path d="M0 -78L55.2 -55.2L78 0L55.2 55.2L0 78L-55.2 55.2L-78 0L-55.2 -55.2Z" fill="#C62368"></path></g><g transform="translate(635 34)"><path d="M0 -98L69.3 -69.3L98 0L69.3 69.3L0 98L-69.3 69.3L-98 0L-69.3 -69.3Z" fill="#C62368"></path></g><g transform="translate(366 476)"><path d="M0 -94L66.5 -66.5L94 0L66.5 66.5L0 94L-66.5 66.5L-94 0L-66.5 -66.5Z" fill="#C62368"></path></g><g transform="translate(65 407)"><path d="M0 -77L54.4 -54.4L77 0L54.4 54.4L0 77L-54.4 54.4L-77 0L-54.4 -54.4Z" fill="#C62368"></path></g><g transform="translate(376 186)"><path d="M0 -87L61.5 -61.5L87 0L61.5 61.5L0 87L-61.5 61.5L-87 0L-61.5 -61.5Z" fill="#C62368"></path></g></g></svg>